<svg xmlns="http://www.w3.org/2000/svg" version="1.1" xmlns:xlink="http://www.w3.org/1999/xlink" xmlns:svgjs="http://svgjs.dev/svgjs" width="1440" height="560" preserveAspectRatio="none" viewBox="0 0 1440 560"><g mask="url(&quot;#SvgjsMask1000&quot;)" fill="none"><rect width="1440" height="560" x="0" y="0" fill="#0e2a47"></rect><path d="M-66.87 363.22L-66.87 363.22" stroke="#132e65" stroke-width="1.5"></path><path d="M-66.87 363.22L56.6 366.19" stroke="#132e65" stroke-width="1.5"></path><path d="M-66.87 363.22L-94.27 496.19" stroke="#132e65" stroke-width="1.5"></path><path d="M-66.87 363.22L90.84 539.14" stroke="#132e65" stroke-width="1.5"></path><path d="M-66.87 363.22L-54.42 659.51" stroke="#132e65" stroke-width="1.5"></path><path d="M-94.27 496.19L-94.27 496.19" stroke="#132e65" stroke-width="1.5"></path><path d="M-94.27 496.19L-54.42 659.51" stroke="#132e65" stroke-width="1.5"></path><path d="M-54.42 659.51L-54.42 659.51" stroke="#132e65" stroke-width="1.5"></path><path d="M-54.42 659.51L37.68 706.65" stroke="#132e65" stroke-width="1.5"></path><path d="M-54.42 659.51L90.84 539.14" stroke="#132e65" stroke-width="1.5"></path><path d="M56.6 366.19L56.6 366.19" stroke="#132e65" stroke-width="1.5"></path><path d="M56.6 366.19L90.84 539.14" stroke="#132e65" stroke-width="1.5"></path><path d="M56.6 366.19L232.55 341.29" stroke="#132e65" stroke-width="1.5"></path><path d="M90.84 539.14L90.84 539.14" stroke="#132e65" stroke-width="1.5"></path><path d="M90.84 539.14L238.43 506.16" stroke="#132e65" stroke-width="1.5"></path><path d="M90.84 539.14L37.68 706.65" stroke="#132e65" stroke-width="1.5"></path><path d="M37.68 706.65L37.68 706.65" stroke="#132e65" stroke-width="1.5"></path><path d="M232.55 341.29L232.55 341.29" stroke="#132e65" stroke-width="1.5"></path><path d="M232.55 341.29L351.48 369.06" stroke="#132e65" stroke-width="1.5"></path><path d="M232.55 341.29L238.43 506.16" stroke="#132e65" stroke-width="1.5"></path><path d="M238.43 506.16L238.43 506.16" stroke="#132e65" stroke-width="1.5"></path><path d="M237.76 703.55L237.76 703.55" stroke="#132e65" stroke-width="1.5"></path><path d="M237.76 703.55L410.33 653.51" stroke="#132e65" stroke-width="1.5"></path><path d="M237.76 703.55L238.43 506.16" stroke="#132e65" stroke-width="1.5"></path><path d="M237.76 703.55L37.68 706.65" stroke="#132e65" stroke-width="1.5"></path><path d="M237.76 703.55L90.84 539.14" stroke="#132e65" stroke-width="1.5"></path><path d="M351.48 369.06L351.48 369.06" stroke="#132e65" stroke-width="1.5"></path><path d="M351.48 369.06L404.64 522.46" stroke="#132e65" stroke-width="1.5"></path><path d="M351.48 369.06L519.58 398.08" stroke="#132e65" stroke-width="1.5"></path><path d="M404.64 522.46L404.64 522.46" stroke="#132e65" stroke-width="1.5"></path><path d="M404.64 522.46L490.13 549.69" stroke="#132e65" stroke-width="1.5"></path><path d="M404.64 522.46L410.33 653.51" stroke="#132e65" stroke-width="1.5"></path><path d="M404.64 522.46L238.43 506.16" stroke="#132e65" stroke-width="1.5"></path><path d="M410.33 653.51L410.33 653.51" stroke="#132e65" stroke-width="1.5"></path><path d="M410.33 653.51L490.13 549.69" stroke="#132e65" stroke-width="1.5"></path><path d="M519.58 398.08L519.58 398.08" stroke="#132e65" stroke-width="1.5"></path><path d="M519.58 398.08L490.13 549.69" stroke="#132e65" stroke-width="1.5"></path><path d="M519.58 398.08L404.64 522.46" stroke="#132e65" stroke-width="1.5"></path><path d="M519.58 398.08L686.77 353.06" stroke="#132e65" stroke-width="1.5"></path><path d="M490.13 549.69L490.13 549.69" stroke="#132e65" stroke-width="1.5"></path><path d="M686.77 353.06L686.77 353.06" stroke="#132e65" stroke-width="1.5"></path><path d="M686.77 353.06L815.26 364.41" stroke="#132e65" stroke-width="1.5"></path><path d="M686.77 353.06L789.59 216.17" stroke="#132e65" stroke-width="1.5"></path><path d="M650.98 560.2L650.98 560.2" stroke="#132e65" stroke-width="1.5"></path><path d="M650.98 560.2L679.98 682.61" stroke="#132e65" stroke-width="1.5"></path><path d="M650.98 560.2L490.13 549.69" stroke="#132e65" stroke-width="1.5"></path><path d="M650.98 560.2L794.09 639.03" stroke="#132e65" stroke-width="1.5"></path><path d="M650.98 560.2L519.58 398.08" stroke="#132e65" stroke-width="1.5"></path><path d="M650.98 560.2L686.77 353.06" stroke="#132e65" stroke-width="1.5"></path><path d="M679.98 682.61L679.98 682.61" stroke="#132e65" stroke-width="1.5"></path><path d="M679.98 682.61L794.09 639.03" stroke="#132e65" stroke-width="1.5"></path><path d="M679.98 682.61L490.13 549.69" stroke="#132e65" stroke-width="1.5"></path><path d="M679.98 682.61L410.33 653.51" stroke="#132e65" stroke-width="1.5"></path><path d="M679.98 682.61L966.31 677.97" stroke="#132e65" stroke-width="1.5"></path><path d="M789.59 216.17L789.59 216.17" stroke="#132e65" stroke-width="1.5"></path><path d="M789.59 216.17L815.26 364.41" stroke="#132e65" stroke-width="1.5"></path><path d="M815.26 364.41L815.26 364.41" stroke="#132e65" stroke-width="1.5"></path><path d="M815.26 364.41L955.88 258.01" stroke="#132e65" stroke-width="1.5"></path><path d="M815.26 364.41L1002.44 409.63" stroke="#132e65" stroke-width="1.5"></path><path d="M794.09 639.03L794.09 639.03" stroke="#132e65" stroke-width="1.5"></path><path d="M794.09 639.03L966.31 677.97" stroke="#132e65" stroke-width="1.5"></path><path d="M794.09 639.03L995.3 524.09" stroke="#132e65" stroke-width="1.5"></path><path d="M938.88 -57.02L938.88 -57.02" stroke="#132e65" stroke-width="1.5"></path><path d="M938.88 -57.02L956.75 60.58" stroke="#132e65" stroke-width="1.5"></path><path d="M938.88 -57.02L1125.19 109.72" stroke="#132e65" stroke-width="1.5"></path><path d="M938.88 -57.02L789.59 216.17" stroke="#132e65" stroke-width="1.5"></path><path d="M956.75 60.58L956.75 60.58" stroke="#132e65" stroke-width="1.5"></path><path d="M956.75 60.58L1125.19 109.72" stroke="#132e65" stroke-width="1.5"></path><path d="M956.75 60.58L955.88 258.01" stroke="#132e65" stroke-width="1.5"></path><path d="M956.75 60.58L789.59 216.17" stroke="#132e65" stroke-width="1.5"></path><path d="M955.88 258.01L955.88 258.01" stroke="#132e65" stroke-width="1.5"></path><path d="M955.88 258.01L1108.07 254.36" stroke="#132e65" stroke-width="1.5"></path><path d="M955.88 258.01L1002.44 409.63" stroke="#132e65" stroke-width="1.5"></path><path d="M1002.44 409.63L1002.44 409.63" stroke="#132e65" stroke-width="1.5"></path><path d="M1002.44 409.63L995.3 524.09" stroke="#132e65" stroke-width="1.5"></path><path d="M995.3 524.09L995.3 524.09" stroke="#132e65" stroke-width="1.5"></path><path d="M995.3 524.09L966.31 677.97" stroke="#132e65" stroke-width="1.5"></path><path d="M966.31 677.97L966.31 677.97" stroke="#132e65" stroke-width="1.5"></path><path d="M966.31 677.97L1106.65 697.23" stroke="#132e65" stroke-width="1.5"></path><path d="M966.31 677.97L1002.44 409.63" stroke="#132e65" stroke-width="1.5"></path><path d="M966.31 677.97L1275.96 656.53" stroke="#132e65" stroke-width="1.5"></path><path d="M1125.19 109.72L1125.19 109.72" stroke="#132e65" stroke-width="1.5"></path><path d="M1125.19 109.72L1258.05 91.28" stroke="#132e65" stroke-width="1.5"></path><path d="M1125.19 109.72L1108.07 254.36" stroke="#132e65" stroke-width="1.5"></path><path d="M1108.07 254.36L1108.07 254.36" stroke="#132e65" stroke-width="1.5"></path><path d="M1108.07 254.36L1125.31 398.57" stroke="#132e65" stroke-width="1.5"></path><path d="M1108.07 254.36L1259.27 196.72" stroke="#132e65" stroke-width="1.5"></path><path d="M1108.07 254.36L1255.8 365.52" stroke="#132e65" stroke-width="1.5"></path><path d="M1125.31 398.57L1125.31 398.57" stroke="#132e65" stroke-width="1.5"></path><path d="M1125.31 398.57L1002.44 409.63" stroke="#132e65" stroke-width="1.5"></path><path d="M1125.31 398.57L1255.8 365.52" stroke="#132e65" stroke-width="1.5"></path><path d="M1125.31 398.57L995.3 524.09" stroke="#132e65" stroke-width="1.5"></path><path d="M1106.65 697.23L1106.65 697.23" stroke="#132e65" stroke-width="1.5"></path><path d="M1106.65 697.23L1275.96 656.53" stroke="#132e65" stroke-width="1.5"></path><path d="M1106.65 697.23L995.3 524.09" stroke="#132e65" stroke-width="1.5"></path><path d="M1106.65 697.23L1307.76 496.92" stroke="#132e65" stroke-width="1.5"></path><path d="M1106.65 697.23L1125.31 398.57" stroke="#132e65" stroke-width="1.5"></path><path d="M1309.71 -99.77L1309.71 -99.77" stroke="#132e65" stroke-width="1.5"></path><path d="M1309.71 -99.77L1457.54 -88.63" stroke="#132e65" stroke-width="1.5"></path><path d="M1309.71 -99.77L1396.6 63.15" stroke="#132e65" stroke-width="1.5"></path><path d="M1309.71 -99.77L1258.05 91.28" stroke="#132e65" stroke-width="1.5"></path><path d="M1309.71 -99.77L1567.24 -58.12" stroke="#132e65" stroke-width="1.5"></path><path d="M1309.71 -99.77L1125.19 109.72" stroke="#132e65" stroke-width="1.5"></path><path d="M1309.71 -99.77L1259.27 196.72" stroke="#132e65" stroke-width="1.5"></path><path d="M1258.05 91.28L1258.05 91.28" stroke="#132e65" stroke-width="1.5"></path><path d="M1258.05 91.28L1259.27 196.72" stroke="#132e65" stroke-width="1.5"></path><path d="M1258.05 91.28L1396.6 63.15" stroke="#132e65" stroke-width="1.5"></path><path d="M1259.27 196.72L1259.27 196.72" stroke="#132e65" stroke-width="1.5"></path><path d="M1259.27 196.72L1125.19 109.72" stroke="#132e65" stroke-width="1.5"></path><path d="M1259.27 196.72L1412.44 254.73" stroke="#132e65" stroke-width="1.5"></path><path d="M1259.27 196.72L1255.8 365.52" stroke="#132e65" stroke-width="1.5"></path><path d="M1255.8 365.52L1255.8 365.52" stroke="#132e65" stroke-width="1.5"></path><path d="M1255.8 365.52L1390.21 356.97" stroke="#132e65" stroke-width="1.5"></path><path d="M1255.8 365.52L1307.76 496.92" stroke="#132e65" stroke-width="1.5"></path><path d="M1307.76 496.92L1307.76 496.92" stroke="#132e65" stroke-width="1.5"></path><path d="M1307.76 496.92L1440.48 497.25" stroke="#132e65" stroke-width="1.5"></path><path d="M1307.76 496.92L1390.21 356.97" stroke="#132e65" stroke-width="1.5"></path><path d="M1307.76 496.92L1275.96 656.53" stroke="#132e65" stroke-width="1.5"></path><path d="M1307.76 496.92L1125.31 398.57" stroke="#132e65" stroke-width="1.5"></path><path d="M1307.76 496.92L1444.1 702.13" stroke="#132e65" stroke-width="1.5"></path><path d="M1275.96 656.53L1275.96 656.53" stroke="#132e65" stroke-width="1.5"></path><path d="M1275.96 656.53L1444.1 702.13" stroke="#132e65" stroke-width="1.5"></path><path d="M1275.96 656.53L1440.48 497.25" stroke="#132e65" stroke-width="1.5"></path><path d="M1457.54 -88.63L1457.54 -88.63" stroke="#132e65" stroke-width="1.5"></path><path d="M1457.54 -88.63L1567.24 -58.12" stroke="#132e65" stroke-width="1.5"></path><path d="M1457.54 -88.63L1396.6 63.15" stroke="#132e65" stroke-width="1.5"></path><path d="M1457.54 -88.63L1538.57 106.21" stroke="#132e65" stroke-width="1.5"></path><path d="M1396.6 63.15L1396.6 63.15" stroke="#132e65" stroke-width="1.5"></path><path d="M1396.6 63.15L1538.57 106.21" stroke="#132e65" stroke-width="1.5"></path><path d="M1412.44 254.73L1412.44 254.73" stroke="#132e65" stroke-width="1.5"></path><path d="M1412.44 254.73L1390.21 356.97" stroke="#132e65" stroke-width="1.5"></path><path d="M1412.44 254.73L1599.19 225.55" stroke="#132e65" stroke-width="1.5"></path><path d="M1390.21 356.97L1390.21 356.97" stroke="#132e65" stroke-width="1.5"></path><path d="M1440.48 497.25L1440.48 497.25" stroke="#132e65" stroke-width="1.5"></path><path d="M1440.48 497.25L1390.21 356.97" stroke="#132e65" stroke-width="1.5"></path><path d="M1440.48 497.25L1605.75 501.19" stroke="#132e65" stroke-width="1.5"></path><path d="M1444.1 702.13L1444.1 702.13" stroke="#132e65" stroke-width="1.5"></path><path d="M1444.1 702.13L1564.11 641.15" stroke="#132e65" stroke-width="1.5"></path><path d="M1444.1 702.13L1440.48 497.25" stroke="#132e65" stroke-width="1.5"></path><path d="M1567.24 -58.12L1567.24 -58.12" stroke="#132e65" stroke-width="1.5"></path><path d="M1567.24 -58.12L1538.57 106.21" stroke="#132e65" stroke-width="1.5"></path><path d="M1567.24 -58.12L1396.6 63.15" stroke="#132e65" stroke-width="1.5"></path><path d="M1538.57 106.21L1538.57 106.21" stroke="#132e65" stroke-width="1.5"></path><path d="M1538.57 106.21L1599.19 225.55" stroke="#132e65" stroke-width="1.5"></path><path d="M1538.57 106.21L1412.44 254.73" stroke="#132e65" stroke-width="1.5"></path><path d="M1599.19 225.55L1599.19 225.55" stroke="#132e65" stroke-width="1.5"></path><path d="M1599.19 225.55L1563.08 369.31" stroke="#132e65" stroke-width="1.5"></path><path d="M1599.19 225.55L1390.21 356.97" stroke="#132e65" stroke-width="1.5"></path><path d="M1599.19 225.55L1396.6 63.15" stroke="#132e65" stroke-width="1.5"></path><path d="M1599.19 225.55L1605.75 501.19" stroke="#132e65" stroke-width="1.5"></path><path d="M1563.08 369.31L1563.08 369.31" stroke="#132e65" stroke-width="1.5"></path><path d="M1563.08 369.31L1605.75 501.19" stroke="#132e65" stroke-width="1.5"></path><path d="M1563.08 369.31L1390.21 356.97" stroke="#132e65" stroke-width="1.5"></path><path d="M1563.08 369.31L1440.48 497.25" stroke="#132e65" stroke-width="1.5"></path><path d="M1605.75 501.19L1605.75 501.19" stroke="#132e65" stroke-width="1.5"></path><path d="M1605.75 501.19L1564.11 641.15" stroke="#132e65" stroke-width="1.5"></path><path d="M1605.75 501.19L1444.1 702.13" stroke="#132e65" stroke-width="1.5"></path><path d="M1564.11 641.15L1564.11 641.15" stroke="#132e65" stroke-width="1.5"></path><path d="M1564.11 641.15L1440.48 497.25" stroke="#132e65" stroke-width="1.5"></path><path d="M1564.11 641.15L1563.08 369.31" stroke="#132e65" stroke-width="1.5"></path><path d="M1564.11 641.15L1275.96 656.53" stroke="#132e65" stroke-width="1.5"></path><circle r="5" cx="-66.87" cy="363.22" fill="#132e65"></circle><circle r="5" cx="-94.27" cy="496.19" fill="#132e65"></circle><circle r="5" cx="-54.42" cy="659.51" fill="#132e65"></circle><circle r="5" cx="56.6" cy="366.19" fill="#132e65"></circle><circle r="5" cx="90.84" cy="539.14" fill="#132e65"></circle><circle r="5" cx="37.68" cy="706.65" fill="#132e65"></circle><circle r="5" cx="232.55" cy="341.29" fill="#132e65"></circle><circle r="5" cx="238.43" cy="506.16" fill="#132e65"></circle><circle r="5" cx="237.76" cy="703.55" fill="#132e65"></circle><circle r="5" cx="351.48" cy="369.06" fill="#132e65"></circle><circle r="5" cx="404.64" cy="522.46" fill="#132e65"></circle><circle r="5" cx="410.33" cy="653.51" fill="#132e65"></circle><circle r="5" cx="519.58" cy="398.08" fill="#132e65"></circle><circle r="5" cx="490.13" cy="549.69" fill="#132e65"></circle><circle r="5" cx="686.77" cy="353.06" fill="#132e65"></circle><circle r="5" cx="650.98" cy="560.2" fill="#132e65"></circle><circle r="5" cx="679.98" cy="682.61" fill="#132e65"></circle><circle r="5" cx="789.59" cy="216.17" fill="#132e65"></circle><circle r="5" cx="815.26" cy="364.41" fill="#132e65"></circle><circle r="5" cx="794.09" cy="639.03" fill="#132e65"></circle><circle r="5" cx="938.88" cy="-57.02" fill="#132e65"></circle><circle r="5" cx="956.75" cy="60.58" fill="#132e65"></circle><circle r="5" cx="955.88" cy="258.01" fill="#132e65"></circle><circle r="5" cx="1002.44" cy="409.63" fill="#132e65"></circle><circle r="5" cx="995.3" cy="524.09" fill="#132e65"></circle><circle r="5" cx="966.31" cy="677.97" fill="#132e65"></circle><circle r="5" cx="1125.19" cy="109.72" fill="#132e65"></circle><circle r="5" cx="1108.07" cy="254.36" fill="#132e65"></circle><circle r="5" cx="1125.31" cy="398.57" fill="#132e65"></circle><circle r="5" cx="1106.65" cy="697.23" fill="#132e65"></circle><circle r="5" cx="1309.71" cy="-99.77" fill="#132e65"></circle><circle r="5" cx="1258.05" cy="91.28" fill="#132e65"></circle><circle r="5" cx="1259.27" cy="196.72" fill="#132e65"></circle><circle r="5" cx="1255.8" cy="365.52" fill="#132e65"></circle><circle r="5" cx="1307.76" cy="496.92" fill="#132e65"></circle><circle r="5" cx="1275.96" cy="656.53" fill="#132e65"></circle><circle r="5" cx="1457.54" cy="-88.63" fill="#132e65"></circle><circle r="5" cx="1396.6" cy="63.15" fill="#132e65"></circle><circle r="5" cx="1412.44" cy="254.73" fill="#132e65"></circle><circle r="5" cx="1390.21" cy="356.97" fill="#132e65"></circle><circle r="5" cx="1440.48" cy="497.25" fill="#132e65"></circle><circle r="5" cx="1444.1" cy="702.13" fill="#132e65"></circle><circle r="5" cx="1567.24" cy="-58.12" fill="#132e65"></circle><circle r="5" cx="1538.57" cy="106.21" fill="#132e65"></circle><circle r="5" cx="1599.19" cy="225.55" fill="#132e65"></circle><circle r="5" cx="1563.08" cy="369.31" fill="#132e65"></circle><circle r="5" cx="1605.75" cy="501.19" fill="#132e65"></circle><circle r="5" cx="1564.11" cy="641.15" fill="#132e65"></circle><path d="M-101.55 665.46L-101.55 665.46" stroke="hsl(228.5, 77.2%, 51.5%)" stroke-width="1.5"></path><path d="M-101.55 665.46L109.41 656.8" stroke="hsl(228.5, 77.2%, 51.5%)" stroke-width="1.5"></path><path d="M-101.55 665.46L107.67 548.98" stroke="hsl(228.5, 77.2%, 51.5%)" stroke-width="1.5"></path><path d="M-101.55 665.46L221.6 687.99" stroke="hsl(228.5, 77.2%, 51.5%)" stroke-width="1.5"></path><path d="M-101.55 665.46L255.45 533.26" stroke="hsl(228.5, 77.2%, 51.5%)" stroke-width="1.5"></path><path d="M-101.55 665.46L343.19 640.59" stroke="hsl(228.5, 77.2%, 51.5%)" stroke-width="1.5"></path><path d="M656.91 411.46L656.91 411.46" stroke="hsl(228.5, 77.2%, 51.5%)" stroke-width="1.5"></path><path d="M656.91 411.46L701.19 553.98" stroke="hsl(228.5, 77.2%, 51.5%)" stroke-width="1.5"></path><path d="M656.91 411.46L527.9 518.54" stroke="hsl(228.5, 77.2%, 51.5%)" stroke-width="1.5"></path><path d="M681.42 654.29L681.42 654.29" stroke="hsl(228.5, 77.2%, 51.5%)" stroke-width="1.5"></path><path d="M681.42 654.29L701.19 553.98" stroke="hsl(228.5, 77.2%, 51.5%)" stroke-width="1.5"></path><path d="M681.42 654.29L799.66 662.2" stroke="hsl(228.5, 77.2%, 51.5%)" stroke-width="1.5"></path><path d="M965.48 556.34L965.48 556.34" stroke="hsl(228.5, 77.2%, 51.5%)" stroke-width="1.5"></path><path d="M965.48 556.34L947.86 689.32" stroke="hsl(228.5, 77.2%, 51.5%)" stroke-width="1.5"></path><path d="M965.48 556.34L839.06 492.33" stroke="hsl(228.5, 77.2%, 51.5%)" stroke-width="1.5"></path><path d="M947.86 689.32L947.86 689.32" stroke="hsl(228.5, 77.2%, 51.5%)" stroke-width="1.5"></path><path d="M947.86 689.32L799.66 662.2" stroke="hsl(228.5, 77.2%, 51.5%)" stroke-width="1.5"></path><path d="M1119.32 374.63L1119.32 374.63" stroke="hsl(228.5, 77.2%, 51.5%)" stroke-width="1.5"></path><path d="M1119.32 374.63L1008 378.09" stroke="hsl(228.5, 77.2%, 51.5%)" stroke-width="1.5"></path><path d="M1119.32 374.63L1269.91 410.92" stroke="hsl(228.5, 77.2%, 51.5%)" stroke-width="1.5"></path><path d="M1119.32 374.63L1138.75 213.18" stroke="hsl(228.5, 77.2%, 51.5%)" stroke-width="1.5"></path><path d="M1119.32 374.63L1143.59 559.36" stroke="hsl(228.5, 77.2%, 51.5%)" stroke-width="1.5"></path><path d="M1119.32 374.63L1010.92 216.68" stroke="hsl(228.5, 77.2%, 51.5%)" stroke-width="1.5"></path><path d="M1119.32 374.63L1248.62 205.1" stroke="hsl(228.5, 77.2%, 51.5%)" stroke-width="1.5"></path><path d="M1116.17 649.63L1116.17 649.63" stroke="hsl(228.5, 77.2%, 51.5%)" stroke-width="1.5"></path><path d="M1116.17 649.63L1143.59 559.36" stroke="hsl(228.5, 77.2%, 51.5%)" stroke-width="1.5"></path><path d="M1116.17 649.63L1262.13 708.82" stroke="hsl(228.5, 77.2%, 51.5%)" stroke-width="1.5"></path><path d="M1400.67 111.57L1400.67 111.57" stroke="hsl(228.5, 77.2%, 51.5%)" stroke-width="1.5"></path><path d="M1400.67 111.57L1262.04 39.48" stroke="hsl(228.5, 77.2%, 51.5%)" stroke-width="1.5"></path><path d="M1416.11 500.2L1416.11 500.2" stroke="hsl(228.5, 77.2%, 51.5%)" stroke-width="1.5"></path><path d="M1416.11 500.2L1396.37 373.77" stroke="hsl(228.5, 77.2%, 51.5%)" stroke-width="1.5"></path><path d="M1416.11 500.2L1544.21 497.56" stroke="hsl(228.5, 77.2%, 51.5%)" stroke-width="1.5"></path><path d="M1416.11 500.2L1269.91 410.92" stroke="hsl(228.5, 77.2%, 51.5%)" stroke-width="1.5"></path><path d="M1416.11 500.2L1388.06 680.02" stroke="hsl(228.5, 77.2%, 51.5%)" stroke-width="1.5"></path><path d="M1416.11 500.2L1538.93 339.01" stroke="hsl(228.5, 77.2%, 51.5%)" stroke-width="1.5"></path><path d="M1570.83 207.04L1570.83 207.04" stroke="hsl(228.5, 77.2%, 51.5%)" stroke-width="1.5"></path><path d="M1570.83 207.04L1538.93 339.01" stroke="hsl(228.5, 77.2%, 51.5%)" stroke-width="1.5"></path><path d="M1570.83 207.04L1558.55 51.87" stroke="hsl(228.5, 77.2%, 51.5%)" stroke-width="1.5"></path><path d="M1570.83 207.04L1400.67 111.57" stroke="hsl(228.5, 77.2%, 51.5%)" stroke-width="1.5"></path><path d="M1558.39 658.13L1558.39 658.13" stroke="hsl(228.5, 77.2%, 51.5%)" stroke-width="1.5"></path><path d="M1558.39 658.13L1544.21 497.56" stroke="hsl(228.5, 77.2%, 51.5%)" stroke-width="1.5"></path><path d="M1558.39 658.13L1388.06 680.02" stroke="hsl(228.5, 77.2%, 51.5%)" stroke-width="1.5"></path><path d="M1558.39 658.13L1416.11 500.2" stroke="hsl(228.5, 77.2%, 51.5%)" stroke-width="1.5"></path><path d="M107.67 548.98L107.67 548.98" stroke="hsl(228.5, 77.2%, 51.5%)" stroke-width="1.5"></path><path d="M107.67 548.98L109.41 656.8" stroke="hsl(228.5, 77.2%, 51.5%)" stroke-width="1.5"></path><path d="M107.67 548.98L255.45 533.26" stroke="hsl(228.5, 77.2%, 51.5%)" stroke-width="1.5"></path><path d="M107.67 548.98L221.6 687.99" stroke="hsl(228.5, 77.2%, 51.5%)" stroke-width="1.5"></path><path d="M109.41 656.8L109.41 656.8" stroke="hsl(228.5, 77.2%, 51.5%)" stroke-width="1.5"></path><path d="M109.41 656.8L221.6 687.99" stroke="hsl(228.5, 77.2%, 51.5%)" stroke-width="1.5"></path><path d="M109.41 656.8L255.45 533.26" stroke="hsl(228.5, 77.2%, 51.5%)" stroke-width="1.5"></path><path d="M109.41 656.8L343.19 640.59" stroke="hsl(228.5, 77.2%, 51.5%)" stroke-width="1.5"></path><path d="M255.45 533.26L255.45 533.26" stroke="hsl(228.5, 77.2%, 51.5%)" stroke-width="1.5"></path><path d="M255.45 533.26L358.57 517.72" stroke="hsl(228.5, 77.2%, 51.5%)" stroke-width="1.5"></path><path d="M255.45 533.26L343.19 640.59" stroke="hsl(228.5, 77.2%, 51.5%)" stroke-width="1.5"></path><path d="M255.45 533.26L221.6 687.99" stroke="hsl(228.5, 77.2%, 51.5%)" stroke-width="1.5"></path><path d="M255.45 533.26L527.9 518.54" stroke="hsl(228.5, 77.2%, 51.5%)" stroke-width="1.5"></path><path d="M221.6 687.99L221.6 687.99" stroke="hsl(228.5, 77.2%, 51.5%)" stroke-width="1.5"></path><path d="M221.6 687.99L343.19 640.59" stroke="hsl(228.5, 77.2%, 51.5%)" stroke-width="1.5"></path><path d="M221.6 687.99L358.57 517.72" stroke="hsl(228.5, 77.2%, 51.5%)" stroke-width="1.5"></path><path d="M358.57 517.72L358.57 517.72" stroke="hsl(228.5, 77.2%, 51.5%)" stroke-width="1.5"></path><path d="M358.57 517.72L343.19 640.59" stroke="hsl(228.5, 77.2%, 51.5%)" stroke-width="1.5"></path><path d="M358.57 517.72L527.9 518.54" stroke="hsl(228.5, 77.2%, 51.5%)" stroke-width="1.5"></path><path d="M358.57 517.72L544.22 655.15" stroke="hsl(228.5, 77.2%, 51.5%)" stroke-width="1.5"></path><path d="M358.57 517.72L107.67 548.98" stroke="hsl(228.5, 77.2%, 51.5%)" stroke-width="1.5"></path><path d="M343.19 640.59L343.19 640.59" stroke="hsl(228.5, 77.2%, 51.5%)" stroke-width="1.5"></path><path d="M343.19 640.59L544.22 655.15" stroke="hsl(228.5, 77.2%, 51.5%)" stroke-width="1.5"></path><path d="M527.9 518.54L527.9 518.54" stroke="hsl(228.5, 77.2%, 51.5%)" stroke-width="1.5"></path><path d="M527.9 518.54L544.22 655.15" stroke="hsl(228.5, 77.2%, 51.5%)" stroke-width="1.5"></path><path d="M544.22 655.15L544.22 655.15" stroke="hsl(228.5, 77.2%, 51.5%)" stroke-width="1.5"></path><path d="M544.22 655.15L681.42 654.29" stroke="hsl(228.5, 77.2%, 51.5%)" stroke-width="1.5"></path><path d="M544.22 655.15L701.19 553.98" stroke="hsl(228.5, 77.2%, 51.5%)" stroke-width="1.5"></path><path d="M701.19 553.98L701.19 553.98" stroke="hsl(228.5, 77.2%, 51.5%)" stroke-width="1.5"></path><path d="M701.19 553.98L799.66 662.2" stroke="hsl(228.5, 77.2%, 51.5%)" stroke-width="1.5"></path><path d="M701.19 553.98L839.06 492.33" stroke="hsl(228.5, 77.2%, 51.5%)" stroke-width="1.5"></path><path d="M701.19 553.98L527.9 518.54" stroke="hsl(228.5, 77.2%, 51.5%)" stroke-width="1.5"></path><path d="M840.69 378L840.69 378" stroke="hsl(228.5, 77.2%, 51.5%)" stroke-width="1.5"></path><path d="M840.69 378L839.06 492.33" stroke="hsl(228.5, 77.2%, 51.5%)" stroke-width="1.5"></path><path d="M840.69 378L1008 378.09" stroke="hsl(228.5, 77.2%, 51.5%)" stroke-width="1.5"></path><path d="M839.06 492.33L839.06 492.33" stroke="hsl(228.5, 77.2%, 51.5%)" stroke-width="1.5"></path><path d="M799.66 662.2L799.66 662.2" stroke="hsl(228.5, 77.2%, 51.5%)" stroke-width="1.5"></path><path d="M1010.92 216.68L1010.92 216.68" stroke="hsl(228.5, 77.2%, 51.5%)" stroke-width="1.5"></path><path d="M1010.92 216.68L1138.75 213.18" stroke="hsl(228.5, 77.2%, 51.5%)" stroke-width="1.5"></path><path d="M1010.92 216.68L1008 378.09" stroke="hsl(228.5, 77.2%, 51.5%)" stroke-width="1.5"></path><path d="M1010.92 216.68L840.69 378" stroke="hsl(228.5, 77.2%, 51.5%)" stroke-width="1.5"></path><path d="M1008 378.09L1008 378.09" stroke="hsl(228.5, 77.2%, 51.5%)" stroke-width="1.5"></path><path d="M1008 378.09L965.48 556.34" stroke="hsl(228.5, 77.2%, 51.5%)" stroke-width="1.5"></path><path d="M1008 378.09L839.06 492.33" stroke="hsl(228.5, 77.2%, 51.5%)" stroke-width="1.5"></path><path d="M1138.75 213.18L1138.75 213.18" stroke="hsl(228.5, 77.2%, 51.5%)" stroke-width="1.5"></path><path d="M1138.75 213.18L1248.62 205.1" stroke="hsl(228.5, 77.2%, 51.5%)" stroke-width="1.5"></path><path d="M1138.75 213.18L1008 378.09" stroke="hsl(228.5, 77.2%, 51.5%)" stroke-width="1.5"></path><path d="M1138.75 213.18L1262.04 39.48" stroke="hsl(228.5, 77.2%, 51.5%)" stroke-width="1.5"></path><path d="M1143.59 559.36L1143.59 559.36" stroke="hsl(228.5, 77.2%, 51.5%)" stroke-width="1.5"></path><path d="M1143.59 559.36L965.48 556.34" stroke="hsl(228.5, 77.2%, 51.5%)" stroke-width="1.5"></path><path d="M1239.26 -98.6L1239.26 -98.6" stroke="hsl(228.5, 77.2%, 51.5%)" stroke-width="1.5"></path><path d="M1239.26 -98.6L1262.04 39.48" stroke="hsl(228.5, 77.2%, 51.5%)" stroke-width="1.5"></path><path d="M1239.26 -98.6L1399.48 -71.22" stroke="hsl(228.5, 77.2%, 51.5%)" stroke-width="1.5"></path><path d="M1239.26 -98.6L1400.67 111.57" stroke="hsl(228.5, 77.2%, 51.5%)" stroke-width="1.5"></path><path d="M1239.26 -98.6L1540.13 -61.91" stroke="hsl(228.5, 77.2%, 51.5%)" stroke-width="1.5"></path><path d="M1239.26 -98.6L1248.62 205.1" stroke="hsl(228.5, 77.2%, 51.5%)" stroke-width="1.5"></path><path d="M1262.04 39.48L1262.04 39.48" stroke="hsl(228.5, 77.2%, 51.5%)" stroke-width="1.5"></path><path d="M1262.04 39.48L1248.62 205.1" stroke="hsl(228.5, 77.2%, 51.5%)" stroke-width="1.5"></path><path d="M1262.04 39.48L1399.48 -71.22" stroke="hsl(228.5, 77.2%, 51.5%)" stroke-width="1.5"></path><path d="M1262.04 39.48L1540.13 -61.91" stroke="hsl(228.5, 77.2%, 51.5%)" stroke-width="1.5"></path><path d="M1248.62 205.1L1248.62 205.1" stroke="hsl(228.5, 77.2%, 51.5%)" stroke-width="1.5"></path><path d="M1269.91 410.92L1269.91 410.92" stroke="hsl(228.5, 77.2%, 51.5%)" stroke-width="1.5"></path><path d="M1269.91 410.92L1396.37 373.77" stroke="hsl(228.5, 77.2%, 51.5%)" stroke-width="1.5"></path><path d="M1262.13 708.82L1262.13 708.82" stroke="hsl(228.5, 77.2%, 51.5%)" stroke-width="1.5"></path><path d="M1262.13 708.82L1388.06 680.02" stroke="hsl(228.5, 77.2%, 51.5%)" stroke-width="1.5"></path><path d="M1262.13 708.82L1143.59 559.36" stroke="hsl(228.5, 77.2%, 51.5%)" stroke-width="1.5"></path><path d="M1399.48 -71.22L1399.48 -71.22" stroke="hsl(228.5, 77.2%, 51.5%)" stroke-width="1.5"></path><path d="M1399.48 -71.22L1540.13 -61.91" stroke="hsl(228.5, 77.2%, 51.5%)" stroke-width="1.5"></path><path d="M1396.37 373.77L1396.37 373.77" stroke="hsl(228.5, 77.2%, 51.5%)" stroke-width="1.5"></path><path d="M1396.37 373.77L1538.93 339.01" stroke="hsl(228.5, 77.2%, 51.5%)" stroke-width="1.5"></path><path d="M1396.37 373.77L1544.21 497.56" stroke="hsl(228.5, 77.2%, 51.5%)" stroke-width="1.5"></path><path d="M1388.06 680.02L1388.06 680.02" stroke="hsl(228.5, 77.2%, 51.5%)" stroke-width="1.5"></path><path d="M1540.13 -61.91L1540.13 -61.91" stroke="hsl(228.5, 77.2%, 51.5%)" stroke-width="1.5"></path><path d="M1540.13 -61.91L1558.55 51.87" stroke="hsl(228.5, 77.2%, 51.5%)" stroke-width="1.5"></path><path d="M1558.55 51.87L1558.55 51.87" stroke="hsl(228.5, 77.2%, 51.5%)" stroke-width="1.5"></path><path d="M1558.55 51.87L1400.67 111.57" stroke="hsl(228.5, 77.2%, 51.5%)" stroke-width="1.5"></path><path d="M1538.93 339.01L1538.93 339.01" stroke="hsl(228.5, 77.2%, 51.5%)" stroke-width="1.5"></path><path d="M1538.93 339.01L1544.21 497.56" stroke="hsl(228.5, 77.2%, 51.5%)" stroke-width="1.5"></path><path d="M1538.93 339.01L1400.67 111.57" stroke="hsl(228.5, 77.2%, 51.5%)" stroke-width="1.5"></path><path d="M1544.21 497.56L1544.21 497.56" stroke="hsl(228.5, 77.2%, 51.5%)" stroke-width="1.5"></path><circle r="25" cx="-101.55" cy="665.46" fill="url(&quot;#SvgjsRadialGradient1001&quot;)"></circle><circle r="25" cx="656.91" cy="411.46" fill="url(&quot;#SvgjsRadialGradient1001&quot;)"></circle><circle r="25" cx="681.42" cy="654.29" fill="url(&quot;#SvgjsRadialGradient1001&quot;)"></circle><circle r="25" cx="965.48" cy="556.34" fill="url(&quot;#SvgjsRadialGradient1001&quot;)"></circle><circle r="25" cx="947.86" cy="689.32" fill="url(&quot;#SvgjsRadialGradient1001&quot;)"></circle><circle r="25" cx="1119.32" cy="374.63" fill="url(&quot;#SvgjsRadialGradient1001&quot;)"></circle><circle r="25" cx="1116.17" cy="649.63" fill="url(&quot;#SvgjsRadialGradient1001&quot;)"></circle><circle r="25" cx="1400.67" cy="111.57" fill="url(&quot;#SvgjsRadialGradient1001&quot;)"></circle><circle r="25" cx="1416.11" cy="500.2" fill="url(&quot;#SvgjsRadialGradient1001&quot;)"></circle><circle r="25" cx="1570.83" cy="207.04" fill="url(&quot;#SvgjsRadialGradient1001&quot;)"></circle><circle r="25" cx="1558.39" cy="658.13" fill="url(&quot;#SvgjsRadialGradient1001&quot;)"></circle><circle r="5" cx="107.67" cy="548.98" fill="#8b9ad9"></circle><circle r="5" cx="109.41" cy="656.8" fill="#8b9ad9"></circle><circle r="5" cx="255.45" cy="533.26" fill="#8b9ad9"></circle><circle r="5" cx="221.6" cy="687.99" fill="#8b9ad9"></circle><circle r="5" cx="358.57" cy="517.72" fill="#8b9ad9"></circle><circle r="5" cx="343.19" cy="640.59" fill="#8b9ad9"></circle><circle r="5" cx="527.9" cy="518.54" fill="#8b9ad9"></circle><circle r="5" cx="544.22" cy="655.15" fill="#8b9ad9"></circle><circle r="5" cx="701.19" cy="553.98" fill="#8b9ad9"></circle><circle r="5" cx="840.69" cy="378" fill="#8b9ad9"></circle><circle r="5" cx="839.06" cy="492.33" fill="#8b9ad9"></circle><circle r="5" cx="799.66" cy="662.2" fill="#8b9ad9"></circle><circle r="5" cx="1010.92" cy="216.68" fill="#8b9ad9"></circle><circle r="5" cx="1008" cy="378.09" fill="#8b9ad9"></circle><circle r="5" cx="1138.75" cy="213.18" fill="#8b9ad9"></circle><circle r="5" cx="1143.59" cy="559.36" fill="#8b9ad9"></circle><circle r="5" cx="1239.26" cy="-98.6" fill="#8b9ad9"></circle><circle r="5" cx="1262.04" cy="39.48" fill="#8b9ad9"></circle><circle r="5" cx="1248.62" cy="205.1" fill="#8b9ad9"></circle><circle r="5" cx="1269.91" cy="410.92" fill="#8b9ad9"></circle><circle r="5" cx="1262.13" cy="708.82" fill="#8b9ad9"></circle><circle r="5" cx="1399.48" cy="-71.22" fill="#8b9ad9"></circle><circle r="5" cx="1396.37" cy="373.77" fill="#8b9ad9"></circle><circle r="5" cx="1388.06" cy="680.02" fill="#8b9ad9"></circle><circle r="5" cx="1540.13" cy="-61.91" fill="#8b9ad9"></circle><circle r="5" cx="1558.55" cy="51.87" fill="#8b9ad9"></circle><circle r="5" cx="1538.93" cy="339.01" fill="#8b9ad9"></circle><circle r="5" cx="1544.21" cy="497.56" fill="#8b9ad9"></circle></g><defs><mask id="SvgjsMask1000"><rect width="1440" height="560" fill="#ffffff"></rect></mask><radialGradient id="SvgjsRadialGradient1001"><stop stop-color="#ffffff" offset="0.1"></stop><stop stop-color="#1735b3" offset="0.2"></stop><stop stop-color="rgba(23, 53, 179, 0)" offset="1"></stop></radialGradient></defs></svg>